<svg xmlns="http://www.w3.org/2000/svg" width="157" height="34" viewBox="0 0 157 34" fill="none"><g clip-path="url(#clip0_2_97)"><path d="M126.936 23.2685L126.952 23.175C127.365 23.0815 127.741 22.8822 128.08 22.5772C128.635 22.0974 128.913 21.4183 128.913 20.548C128.913 19.7998 128.639 19.2183 128.096 18.8035C127.549 18.3887 126.716 18.1813 125.597 18.1813H116.2L114.073 29.1527H123.963C125.535 29.1527 126.716 28.7339 127.496 27.8921C127.814 27.5546 128.047 27.1561 128.19 26.7006C128.333 26.2452 128.406 25.7897 128.406 25.3424C128.406 24.3095 127.916 23.6182 126.94 23.2685H126.936ZM124.253 26.3103C123.988 26.6274 123.579 26.786 123.036 26.786H118.038L118.471 24.6064H123.469C123.849 24.6064 124.127 24.6715 124.294 24.7975C124.466 24.9276 124.547 25.1228 124.547 25.3872C124.547 25.7857 124.449 26.0947 124.253 26.3103ZM124.715 22.1014C124.498 22.3698 124.147 22.4999 123.665 22.4999H118.867L119.251 20.5928H124.049C124.686 20.5928 125.005 20.8286 125.005 21.3003C125.005 21.6297 124.907 21.894 124.711 22.0974L124.715 22.1014Z" fill="white"></path><path d="M128.639 29.1527H140.718L141.196 26.6356H132.633L133.021 24.6999H141.074L141.523 22.378H133.466L133.793 20.6904H142.184L142.679 18.1854H130.767L128.639 29.1527Z" fill="white"></path><path d="M143.683 18.1854L143.197 20.6619H148.094L147.84 22.0079L146.464 29.1527H149.98L151.356 22.0079L151.61 20.6619H156.51L157 18.1854H143.683Z" fill="white"></path><path d="M111.671 9.62948H101.744L83.4617 23.3783L82.3101 29.1934H100.07L99.1592 33.9959H106.955L107.866 29.1934H112.411L113.391 24.0046H108.882L111.68 9.62541L111.671 9.62948ZM101.079 24.0086H91.6044L91.6412 23.8012L102.581 15.6194H102.687L101.079 24.0086Z" fill="white"></path><path d="M93.9892 13.2731L81.0808 13.2365C76.3601 13.2365 72.2765 16.5873 71.3658 21.2068L69.7814 29.3683H76.4541L77.7935 22.4552C78.0998 20.8978 79.4841 19.7632 81.0808 19.7632L85.287 19.8242L93.9892 13.2771V13.2731Z" fill="white"></path><path d="M68.3725 18.5188C68.9565 19.1776 69.2505 20.121 69.2505 21.3491C69.2505 22.321 69.1076 23.2685 68.8299 24.1957C68.5481 25.1228 68.0826 25.9402 67.4333 26.6518C66.6737 27.4936 65.6814 28.1564 64.4481 28.6404C63.2149 29.1243 61.6222 29.3683 59.6743 29.3683H37.6267L42.1065 6.28275H63.0474C65.514 6.28275 67.3393 6.73006 68.5195 7.62469C69.6997 8.51932 70.2877 9.75147 70.2877 11.3252C70.2877 13.2243 69.6711 14.6435 68.4378 15.595C67.6783 16.1969 66.8779 16.5954 66.0367 16.7906L66.004 16.9858C67.0004 17.3518 67.7885 17.8641 68.3725 18.5229V18.5188ZM59.4457 23.2888C59.8581 22.8171 60.0623 22.2234 60.0623 21.5118C60.0623 20.4342 59.3476 19.8933 57.9184 19.8933H47.8195L46.9742 24.2241H57.0404C58.1225 24.2241 58.9229 23.911 59.4416 23.2848L59.4457 23.2888ZM60.4502 14.5906C60.8627 14.1148 61.0669 13.5902 61.0669 13.0047C61.0669 12.0328 60.4176 11.5489 59.119 11.5489H49.4448L48.6975 15.3958H58.3717C59.3027 15.3958 59.9969 15.1274 60.4502 14.5865V14.5906Z" fill="white"></path><path d="M9.20459 3.66799C6.64823 3.59885 5.23528 4.35929 4.3818 5.14819C4.05919 5.49384 3.74884 5.8517 3.4589 6.22175C3.42623 6.26241 3.39356 6.30308 3.36089 6.34374C2.81776 7.05131 2.32773 7.80361 1.90303 8.59251C1.90303 8.59251 1.06179 10.5363 3.18121 10.1012C3.21796 10.0931 3.25471 10.0849 3.29147 10.0727C3.29963 10.0727 3.3078 10.0687 3.32005 10.0646C3.34047 10.0605 3.35681 10.0524 3.37722 10.0483C3.38947 10.0483 3.40173 10.0402 3.41398 10.0361C3.42214 10.0361 3.43439 10.028 3.44256 10.0239C3.45073 10.0239 3.46298 10.0158 3.47115 10.0117C3.62633 9.95073 3.7815 9.8694 3.94485 9.7718C3.95302 9.76773 3.96119 9.7596 3.97344 9.75553C4.04694 9.7108 4.12453 9.65794 4.20212 9.60507C4.21846 9.59694 4.23071 9.58474 4.24704 9.57661C4.28379 9.55221 4.32055 9.52781 4.3573 9.49934C4.36955 9.49121 4.38589 9.47901 4.39814 9.47088C4.56965 9.34888 4.74525 9.21469 4.92901 9.07236C4.94534 9.06016 4.96168 9.04796 4.97393 9.03576C5.09236 8.9463 5.21487 8.84871 5.34554 8.75518C5.36188 8.74298 5.37821 8.73078 5.39455 8.71858C5.52114 8.62505 5.64773 8.52745 5.78249 8.43392C5.80291 8.42172 5.81925 8.40546 5.83966 8.39326C5.97442 8.29566 6.11327 8.20213 6.2562 8.1086C6.27661 8.0964 6.29703 8.08014 6.31745 8.06794C6.41954 7.99881 6.5298 7.93374 6.63598 7.86461C6.65639 7.85241 6.67273 7.84021 6.69315 7.83208C6.88099 7.71822 7.07293 7.61249 7.27711 7.50676C7.29344 7.49863 7.30978 7.49049 7.3302 7.47829C7.3547 7.46609 7.3792 7.4539 7.4037 7.4417C7.47721 7.4051 7.55071 7.3685 7.6283 7.3319C7.65281 7.3197 7.67731 7.3075 7.70589 7.2953C7.98358 7.16924 8.2776 7.05131 8.58796 6.94558C8.60838 6.93745 8.6288 6.93338 8.64922 6.92525C8.66147 6.92118 8.6778 6.91712 8.69414 6.91305C8.72272 6.90492 8.75131 6.89272 8.78398 6.88459C8.83298 6.86832 8.88198 6.85612 8.93099 6.83985C8.95957 6.83172 8.98408 6.82359 9.01266 6.81546C9.04125 6.80732 9.06575 6.79919 9.09433 6.79106C9.11067 6.78699 9.127 6.78292 9.14742 6.77886C9.18009 6.77072 9.20868 6.76259 9.24134 6.75446C9.37202 6.72193 9.50678 6.68939 9.64563 6.66093C9.7028 6.64873 9.75997 6.63653 9.81714 6.62433C9.81714 6.62433 9.82122 6.62433 9.82531 6.62433C9.87431 6.6162 9.91923 6.60806 9.96824 6.59993C10.005 6.5918 10.0417 6.58773 10.0826 6.5796C10.1888 6.56333 10.299 6.54707 10.4093 6.5308C10.4419 6.52673 10.4746 6.52267 10.5114 6.5186C10.544 6.5186 10.5767 6.51047 10.6135 6.5064C10.6461 6.5064 10.6788 6.49827 10.7074 6.49827C10.7115 6.49827 10.7155 6.49827 10.7196 6.49827C10.7523 6.49827 10.785 6.49014 10.8176 6.49014C10.8503 6.49014 10.883 6.48607 10.9156 6.482C10.9524 6.482 10.9891 6.47794 11.03 6.47387C11.0382 6.47387 11.0422 6.47387 11.0504 6.47387C11.0708 6.47387 11.0953 6.47387 11.1157 6.4698C11.1443 6.4698 11.177 6.4698 11.2056 6.46574C11.2383 6.46574 11.275 6.46574 11.3077 6.46167C11.3567 6.46167 11.4057 6.46167 11.4588 6.4576C11.4874 6.4576 11.52 6.4576 11.5486 6.4576C11.5894 6.4576 11.6262 6.4576 11.667 6.4576C11.7079 6.4576 11.7446 6.4576 11.7855 6.4576C13.3699 6.4576 15.2647 6.77886 17.5679 7.61249C17.7394 7.67349 17.9069 7.73448 18.0702 7.79142C13.5292 6.05909 11.9161 3.74931 9.22501 3.67612L9.20459 3.66799Z" fill="url(#paint0_radial_2_97)"></path><path d="M16.2815 0C11.5934 0 7.37503 1.97225 4.40213 5.12786L4.39397 5.13599L4.38171 5.14819C5.2352 4.36335 6.64814 3.60292 9.2045 3.67205C11.8956 3.74525 13.5087 6.05502 18.0497 7.78735C20.9409 8.77957 23.1298 9.02763 24.7673 8.8975C28.3772 8.61691 29.3328 6.5186 29.3328 6.5186C26.3599 2.56189 21.6229 0 16.2815 0ZM23.6933 7.54742C23.3339 7.74668 22.9174 7.85648 22.4804 7.85648C21.092 7.85648 19.9649 6.73819 19.9649 5.35151C19.9649 4.99366 20.0384 4.65208 20.1773 4.34302C20.5652 3.46059 21.4514 2.84655 22.4804 2.84655C23.873 2.84655 24.996 3.96484 24.996 5.35151C24.996 6.29901 24.4692 7.12044 23.6933 7.54742Z" fill="url(#paint1_linear_2_97)"></path><path d="M32.5671 16.2213C32.5671 22.5487 28.9245 28.0344 23.6198 30.7061H23.6117H23.5994C23.5994 30.7061 27.5769 27.3228 28.5488 22.9798C28.557 22.9513 28.561 22.9229 28.5692 22.8944C29.0062 20.8611 28.7775 18.6246 27.1808 16.4246C25.4289 14.0132 23.138 13.2975 20.7409 13.4845C17.8047 13.7122 14.7093 15.2982 12.2632 16.7662C10.9605 17.5469 9.8416 18.2992 9.02895 18.7913C4.97797 21.2556 0.600297 21.6744 0.0490038 17.5917V17.5795C0.0204182 17.2501 0 16.9207 0 16.5832V16.571C0.0735057 15.8471 0.69422 11.4269 5.56193 10.0971C5.88862 10.0077 6.23573 9.93446 6.59918 9.87346C7.77119 9.68234 9.11879 9.82466 10.5807 10.1175C15.0278 11.0161 20.5081 13.3707 25.1389 12.3337C27.1889 11.8742 29.0715 10.7518 30.6274 8.54372V8.55185C31.8647 10.8372 32.563 13.4479 32.563 16.2213H32.5671Z" fill="url(#paint2_linear_2_97)"></path><path d="M15.767 32.0603C13.6353 32.0603 10.5277 31.5316 7.62829 29.8603C7.62012 29.8603 7.61604 29.8522 7.60787 29.8481C7.59154 29.84 7.58337 29.8359 7.58337 29.8359C5.4517 28.5956 3.4303 26.7332 1.98877 24.0045C1.9806 23.9923 1.97652 23.9842 1.97652 23.9842C1.79684 23.6589 1.62941 23.3254 1.47423 22.9879C1.15571 22.2966 1.8826 21.585 2.57682 21.8981C3.45888 22.3007 4.67581 22.5731 6.34602 22.504C10.2867 22.3373 13.6762 18.775 17.7966 18.7913C18.209 18.7913 18.6296 18.8319 19.0584 18.9133C19.7608 19.0475 20.4877 19.2955 21.2432 19.69C21.4923 19.8201 21.7455 19.9665 22.0027 20.1292C28.2221 24.1143 23.0931 32.0521 15.7629 32.0603H15.767Z" fill="url(#paint3_linear_2_97)"></path><path d="M18.0497 7.78328C17.8823 7.72635 17.7148 7.66942 17.5474 7.60435C15.2442 6.77072 13.3494 6.44947 11.765 6.44947C11.7241 6.44947 11.6874 6.44947 11.6465 6.44947C11.6057 6.44947 11.5689 6.44947 11.5281 6.44947C11.4995 6.44947 11.4668 6.44947 11.4383 6.44947C11.3893 6.44947 11.3362 6.44947 11.2872 6.45353C11.2504 6.45353 11.2177 6.45353 11.1851 6.4576C11.1565 6.4576 11.1238 6.4576 11.0952 6.46166C11.0748 6.46166 11.0503 6.46166 11.0299 6.46573C11.0217 6.46573 11.0176 6.46573 11.0095 6.46573C10.9727 6.46573 10.936 6.4698 10.8951 6.47386C10.8625 6.47386 10.8298 6.47793 10.7971 6.482C10.7645 6.482 10.7318 6.48606 10.6991 6.49013C10.695 6.49013 10.691 6.49013 10.6869 6.49013C10.6542 6.49013 10.6215 6.49826 10.5929 6.49826C10.5603 6.49826 10.5235 6.5064 10.4909 6.51046C10.4582 6.51046 10.4255 6.5186 10.3888 6.52266C10.2785 6.53486 10.1682 6.55113 10.0621 6.57146C10.0253 6.57959 9.98856 6.58366 9.94773 6.59179C9.89872 6.59993 9.8538 6.60806 9.8048 6.61619C9.8048 6.61619 9.80072 6.61619 9.79663 6.61619C9.73946 6.62839 9.68229 6.64059 9.62512 6.65279C9.48627 6.68126 9.35151 6.71379 9.22084 6.74632C9.18817 6.75445 9.15958 6.76259 9.12691 6.77072C9.11058 6.77478 9.09424 6.77885 9.07383 6.78292C9.04524 6.79105 9.01665 6.79918 8.99215 6.80732C8.96357 6.81545 8.93906 6.82358 8.91048 6.83172C8.86148 6.84798 8.81247 6.86018 8.76347 6.87645C8.73488 6.88458 8.7063 6.89678 8.67363 6.90491C8.65729 6.90898 8.64504 6.91305 8.62871 6.91711C8.60829 6.92525 8.58787 6.92931 8.56745 6.93744C8.2571 7.04317 7.96307 7.1611 7.68538 7.28716C7.66088 7.29936 7.6323 7.31156 7.6078 7.32376C7.53021 7.36036 7.4567 7.39696 7.38319 7.43356C7.35869 7.44576 7.33419 7.45796 7.30969 7.47016C7.29335 7.47829 7.27294 7.48642 7.2566 7.49862C7.05242 7.60435 6.8564 7.71415 6.67264 7.82394C6.65222 7.83614 6.63589 7.84834 6.61547 7.85647C6.50521 7.92154 6.39903 7.99067 6.29694 8.0598C6.27653 8.072 6.25611 8.08826 6.23569 8.10046C6.09276 8.19399 5.95392 8.29159 5.81916 8.38512C5.79874 8.39732 5.7824 8.41358 5.76199 8.42578C5.62722 8.52338 5.49655 8.61691 5.37404 8.71044C5.3577 8.72264 5.34137 8.73484 5.32503 8.74704C5.19844 8.84463 5.07593 8.93816 4.95342 9.02763C4.93709 9.03983 4.92075 9.05203 4.9085 9.06422C4.72065 9.20655 4.54506 9.34075 4.37763 9.46274C4.36538 9.47494 4.34904 9.48307 4.33679 9.49121C4.30004 9.51561 4.26329 9.54407 4.22653 9.56847C4.2102 9.58067 4.19795 9.5888 4.18161 9.59694C4.10402 9.6498 4.02643 9.6986 3.95293 9.7474C3.94476 9.75146 3.93659 9.7596 3.92434 9.76366C3.761 9.86126 3.60582 9.94259 3.45064 10.0036C3.44247 10.0036 3.43022 10.0117 3.42205 10.0158C3.41389 10.0158 3.40164 10.0239 3.39347 10.028C3.38122 10.0321 3.36897 10.0361 3.35672 10.0402C3.3363 10.0483 3.31588 10.0524 3.29954 10.0564C3.29138 10.0564 3.28321 10.0605 3.27096 10.0646C3.23421 10.0768 3.19745 10.0849 3.1607 10.093C1.04129 10.5282 1.88252 8.58844 1.88252 8.58844C2.30722 7.79548 2.79317 7.04317 3.34038 6.3356C3.36488 6.30307 3.38938 6.27054 3.41389 6.23801C3.63849 5.93302 3.92843 5.5345 4.36129 5.14005C5.21478 4.35522 6.62772 3.59072 9.18408 3.65985C11.8752 3.73304 13.4883 6.04282 18.0293 7.77514L18.0497 7.78328Z" fill="url(#paint4_linear_2_97)"></path><path d="M17.7965 18.7872C14.207 18.9092 12.9206 23.2888 8.7349 25.4278C4.28373 27.701 2.15614 24.2892 1.98871 24.0005C1.98055 23.9883 1.97646 23.9801 1.97646 23.9801C1.82129 23.6996 1.67427 23.4108 1.53951 23.1181V23.114C1.5191 23.0693 1.49868 23.0245 1.47826 22.9798C1.15973 22.2885 1.88662 21.5768 2.58084 21.89C3.46291 22.2926 4.67984 22.565 6.35005 22.4959C8.9105 22.3901 11.2382 20.8449 13.6843 19.7835C15.0033 19.2101 16.355 18.775 17.8006 18.7832L17.7965 18.7872Z" fill="url(#paint5_linear_2_97)"></path><path d="M12.2632 16.7702C10.9605 17.551 9.8416 18.3033 9.02895 18.7954C4.97797 21.2556 0.600297 21.6744 0.0490038 17.5917V17.5795C0.0204182 17.2501 0 16.9207 0 16.5832V16.571C0.0735057 15.8472 0.69422 11.4269 5.56193 10.0971C5.43534 10.1378 2.70746 11.0893 2.14392 14.1962C1.56812 17.3802 5.60277 20.4789 12.2632 16.7662V16.7702Z" fill="url(#paint6_linear_2_97)"></path><path d="M18.0497 7.78328C17.8823 7.72635 17.7149 7.66941 17.5474 7.60435C15.2442 6.77072 13.3494 6.44946 11.765 6.44946C11.7241 6.44946 11.6874 6.44946 11.6465 6.44946C11.6057 6.44946 11.569 6.44946 11.5281 6.44946C11.4995 6.44946 11.4669 6.44946 11.4383 6.44946C11.3893 6.44946 11.3362 6.44946 11.2872 6.45353C11.2504 6.45353 11.2178 6.45353 11.1851 6.4576C11.1565 6.4576 11.1238 6.4576 11.0953 6.46166C11.0748 6.46166 11.0503 6.46166 11.0299 6.46573C11.0217 6.46573 11.0177 6.46573 11.0095 6.46573C10.4541 5.97775 9.81299 5.54264 9.07385 5.22138C5.81918 3.80624 3.69976 5.94522 3.45474 6.21361C3.44249 6.22581 3.43433 6.23394 3.43433 6.23801C3.65893 5.93302 3.94887 5.5345 4.38173 5.14005C5.23522 4.35522 6.64816 3.59072 9.20452 3.65985C11.8956 3.73304 13.5087 6.04281 18.0497 7.77514V7.78328Z" fill="url(#paint7_linear_2_97)"></path><path d="M4.38177 5.14819C4.5982 4.92453 4.84322 4.72121 5.10458 4.54228C5.36593 4.36336 5.6477 4.21696 5.93764 4.08683C6.22758 3.95671 6.52977 3.85911 6.83604 3.77778L7.06881 3.72085C7.1464 3.70052 7.22399 3.68832 7.30158 3.67612L7.42 3.65172L7.47718 3.63952L7.53435 3.63139L7.7712 3.59885C7.81204 3.59479 7.84879 3.58666 7.88962 3.58259L8.00805 3.57039L8.2449 3.54599C8.28574 3.54192 8.32249 3.53786 8.36333 3.53786H8.48175L8.71861 3.52159C8.87787 3.52159 9.03713 3.52159 9.19231 3.52159C9.27398 3.52159 9.35157 3.52972 9.43324 3.52972C9.51492 3.53379 9.59251 3.54192 9.67418 3.55006C9.99679 3.58666 10.3112 3.65985 10.6175 3.75338C10.9238 3.85098 11.2219 3.97297 11.5077 4.11123C12.0794 4.38776 12.6185 4.72121 13.1494 5.05466L13.9416 5.55484C14.207 5.72157 14.4684 5.88423 14.7379 6.04689C15.8037 6.69346 16.9063 7.2709 18.0497 7.77922C16.8573 7.39696 15.7057 6.87645 14.6072 6.26648C14.4684 6.18921 14.3336 6.11195 14.1948 6.03469C14.06 5.95742 13.9253 5.87609 13.7905 5.79476L12.986 5.31085C12.7165 5.15226 12.4511 4.9896 12.1815 4.83507C11.912 4.68054 11.6425 4.53415 11.3648 4.39996C10.8135 4.13157 10.2336 3.92824 9.63334 3.84691C9.55984 3.83878 9.48225 3.82658 9.40874 3.82251C9.33115 3.81845 9.25765 3.81031 9.18006 3.80625L8.71861 3.79811C8.56343 3.79811 8.40825 3.80218 8.25715 3.81031L8.02438 3.82251L7.91004 3.83065C7.87329 3.83065 7.83245 3.83878 7.7957 3.84284L7.56702 3.86724H7.50984L7.45267 3.88351L7.33833 3.89978C7.26074 3.91198 7.18724 3.92011 7.10965 3.93637L6.88096 3.98111C6.57877 4.04617 6.28067 4.12343 5.99073 4.23323C5.70079 4.33896 5.41902 4.46502 5.1495 4.61548L4.9494 4.73341L4.75338 4.86354C4.68804 4.90827 4.62679 4.953 4.56145 5.0018L4.37769 5.14819H4.38177Z" fill="url(#paint8_linear_2_97)"></path><path d="M17.7966 18.7872C14.207 18.9092 12.9207 23.2888 8.73494 25.4278C4.28376 27.701 2.15618 24.2892 1.98875 24.0005C1.98058 23.9883 1.9765 23.9801 1.9765 23.9801C1.82132 23.6996 1.67431 23.4108 1.53955 23.118C1.60081 23.24 2.92799 25.806 6.78704 24.1062C9.37199 22.9676 11.3566 20.9831 13.6843 19.7876C14.9135 19.1532 16.2407 18.7425 17.8006 18.7872H17.7966Z" fill="url(#paint9_linear_2_97)"></path><path d="M17.7965 18.7872C17.4004 18.8238 17.0084 18.9052 16.6368 19.0434C16.2692 19.1817 15.918 19.3687 15.5954 19.5883C15.2728 19.8079 14.9706 20.06 14.6807 20.3284C14.3948 20.5968 14.1171 20.8815 13.8476 21.1702C13.7129 21.3166 13.5781 21.463 13.4474 21.6094L13.0472 22.0526C12.7818 22.3495 12.5123 22.6423 12.2346 22.931C12.0957 23.0774 11.9528 23.2197 11.814 23.358C11.671 23.4962 11.524 23.6386 11.377 23.7728C11.23 23.911 11.0748 24.0411 10.9237 24.1713C10.7685 24.2973 10.6134 24.4275 10.45 24.5495C10.2908 24.6755 10.1233 24.7894 9.95999 24.9032C9.87423 24.9602 9.78847 25.013 9.7068 25.07L9.58021 25.1513L9.44953 25.2286C9.10242 25.44 8.73898 25.6189 8.36736 25.7857C7.99167 25.9443 7.6078 26.0785 7.20761 26.1801L6.90542 26.2452C6.85641 26.2574 6.80333 26.2655 6.75432 26.2696L6.60323 26.2899C6.50114 26.3062 6.39904 26.3143 6.29695 26.3184C6.24387 26.3184 6.19486 26.3265 6.14178 26.3306H5.9866C5.57823 26.3347 5.16578 26.2899 4.76967 26.1842C4.37355 26.0785 3.99378 25.9199 3.64666 25.7084L3.51599 25.6271C3.47515 25.5986 3.43431 25.5702 3.38939 25.5417C3.30364 25.4848 3.22605 25.4197 3.14438 25.3587C2.9892 25.2286 2.8381 25.0984 2.69926 24.952C2.42157 24.6633 2.17247 24.3421 1.98462 23.9924C2.09488 24.1591 2.22147 24.3136 2.35215 24.46C2.48282 24.6064 2.62575 24.7487 2.76868 24.8788C2.91569 25.009 3.07087 25.131 3.23013 25.2448C3.31181 25.2977 3.39348 25.3546 3.47515 25.4034C3.51599 25.4278 3.55682 25.4563 3.60174 25.4807L3.73242 25.5498C4.07545 25.7369 4.44706 25.867 4.82276 25.9524C5.20254 26.0337 5.59048 26.0663 5.97435 26.05L6.11727 26.0419C6.16628 26.0378 6.21528 26.0297 6.2602 26.0256C6.35821 26.0134 6.45213 26.0053 6.54606 25.9849L6.68898 25.9605C6.73799 25.9524 6.78291 25.9443 6.83191 25.9321L7.11368 25.867C7.48938 25.7653 7.85282 25.6271 8.2081 25.4685C8.5593 25.3018 8.91049 25.1269 9.24126 24.9154L9.36786 24.8382L9.49037 24.7569C9.57204 24.704 9.65371 24.6511 9.73539 24.5942C9.89465 24.4803 10.058 24.3705 10.2091 24.2485C10.3684 24.1306 10.5194 24.0045 10.6705 23.8826C10.8176 23.7524 10.9686 23.6304 11.1157 23.4962C11.2627 23.3661 11.4056 23.2278 11.5485 23.0937C11.6874 22.9554 11.8303 22.8171 11.9691 22.6789C12.5286 22.1218 13.0595 21.5281 13.6271 20.9628C13.9089 20.6782 14.1988 20.4016 14.5051 20.1373C14.8114 19.8771 15.134 19.6331 15.4811 19.4216C15.8282 19.2142 16.1998 19.0434 16.5878 18.9296L16.7348 18.8889L16.8083 18.8686C16.8328 18.8645 16.8573 18.8604 16.8818 18.8523L17.0288 18.8238C17.0778 18.8157 17.1268 18.8035 17.1758 18.7994L17.3269 18.7832L17.4004 18.775C17.4249 18.775 17.4494 18.771 17.4739 18.771L17.772 18.7628L17.7965 18.7872Z" fill="url(#paint10_linear_2_97)"></path><path d="M15.767 32.0603C13.6353 32.0603 10.5277 31.5316 7.6283 29.8603C8.17551 30.1653 13.5455 32.9874 19.136 28.864C25.0369 24.5169 22.6847 20.5033 21.2514 19.69C21.5005 19.8201 21.7536 19.9665 22.0109 20.1292C28.2303 24.1143 23.1012 32.0521 15.7711 32.0603H15.767Z" fill="url(#paint11_linear_2_97)"></path><path d="M32.5671 16.2213C32.5671 22.5487 28.9244 28.0344 23.6198 30.7061H23.6116H23.5994C23.5994 30.7061 27.5768 27.3228 28.5488 22.9798C28.5569 22.9513 28.561 22.9229 28.5692 22.8944C29.9168 16.7824 25.9679 13.0372 25.1389 12.3337C27.1889 11.8742 29.0715 10.7518 30.6273 8.54372V8.55185C31.8647 10.8372 32.563 13.4479 32.563 16.2213H32.5671Z" fill="url(#paint12_linear_2_97)"></path><path d="M6.60326 9.87346C6.86461 9.8206 7.13414 9.78807 7.39957 9.76773C7.66909 9.7474 7.93861 9.74333 8.20813 9.7474C8.74718 9.7596 9.28214 9.81246 9.81709 9.88566C10.8829 10.0402 11.9324 10.2801 12.9738 10.5444L13.7537 10.7437L14.5296 10.947C15.0482 11.0853 15.5628 11.2195 16.0814 11.3537C17.1187 11.618 18.1559 11.8701 19.2013 12.0612C19.724 12.1588 20.2508 12.2402 20.7776 12.3052C21.3044 12.3662 21.8353 12.4069 22.3621 12.4191C23.4197 12.4516 24.4815 12.3581 25.5024 12.0978C26.0128 11.9718 26.5111 11.7888 26.9929 11.5692C27.1154 11.5163 27.2298 11.4553 27.3482 11.3984C27.4095 11.3699 27.4625 11.3374 27.5238 11.3049C27.581 11.2723 27.6381 11.2439 27.6953 11.2073C27.924 11.0731 28.1486 10.9308 28.3609 10.7762C28.7938 10.4712 29.1981 10.1256 29.5779 9.75147C29.6718 9.65794 29.7616 9.56034 29.8556 9.46275L30.121 9.16589L30.3783 8.8609L30.6274 8.54372C30.0475 9.44241 29.3247 10.2557 28.4712 10.9186C27.6177 11.5814 26.6254 12.0775 25.58 12.3703L25.384 12.4232L25.1839 12.472C25.0532 12.5045 24.9184 12.533 24.7837 12.5574C24.7183 12.5736 24.6489 12.5817 24.5836 12.5939C24.5182 12.6061 24.4488 12.6183 24.3835 12.6265C24.2487 12.6427 24.114 12.6671 23.9792 12.6793C23.4401 12.7403 22.897 12.7647 22.3539 12.7566C21.2676 12.7403 20.1936 12.6021 19.1319 12.411C18.601 12.3134 18.0742 12.1995 17.5515 12.0734C17.0288 11.9474 16.5061 11.8172 15.9875 11.679C14.9502 11.3984 13.9212 11.1015 12.8921 10.8128C12.3775 10.6705 11.8589 10.5322 11.3444 10.4021C11.0871 10.337 10.8258 10.276 10.5644 10.2191C10.303 10.1622 10.0417 10.1093 9.78034 10.0605C9.51899 10.0117 9.25355 9.96699 8.9922 9.93039C8.72676 9.89379 8.46132 9.86533 8.19588 9.845C7.93045 9.82466 7.66501 9.81653 7.39549 9.8206C7.13005 9.8206 6.86053 9.83686 6.59509 9.87346H6.60326Z" fill="url(#paint13_linear_2_97)"></path><path d="M29.3329 6.51453C29.3329 6.51453 28.3773 8.61285 24.7674 8.89343C24.4325 8.44205 24.0732 7.99067 23.6893 7.54742C24.4652 7.12044 24.992 6.29901 24.992 5.35151C24.992 3.96484 23.8649 2.84655 22.4765 2.84655C21.4474 2.84655 20.5612 3.46059 20.1733 4.34302C19.5117 3.87944 18.8053 3.45652 18.0498 3.08241C10.3603 -0.736036 4.782 4.73747 4.40222 5.12785C7.37104 1.97225 11.5935 0 16.2816 0C21.623 0 26.36 2.56189 29.337 6.51453H29.3329Z" fill="url(#paint14_linear_2_97)"></path></g><defs><radialGradient id="paint0_radial_2_97" cx="0" cy="0" r="1" gradientUnits="userSpaceOnUse" gradientTransform="translate(14.4766 5.20512) scale(11.1851 11.1381)"><stop stop-color="#AADFF6"></stop><stop offset="0.29" stop-color="#3BC5F3"></stop><stop offset="1" stop-color="#334EA0"></stop></radialGradient><linearGradient id="paint1_linear_2_97" x1="-1.40482" y1="5.37591" x2="23.1498" y2="4.322" gradientUnits="userSpaceOnUse"><stop stop-color="#333B00"></stop><stop offset="0.47" stop-color="#006E00"></stop><stop offset="1" stop-color="#3DA013"></stop></linearGradient><linearGradient id="paint2_linear_2_97" x1="0" y1="19.629" x2="32.5671" y2="19.629" gradientUnits="userSpaceOnUse"><stop offset="0.47" stop-color="#FFC500"></stop><stop offset="1" stop-color="#F2D500"></stop></linearGradient><linearGradient id="paint3_linear_2_97" x1="19.1197" y1="15.286" x2="9.85944" y2="29.3919" gradientUnits="userSpaceOnUse"><stop stop-color="#333B00"></stop><stop offset="0.47" stop-color="#006E00"></stop><stop offset="1" stop-color="#3DA013"></stop></linearGradient><linearGradient id="paint4_linear_2_97" x1="19.479" y1="1.68353" x2="2.4856" y2="11.4519" gradientUnits="userSpaceOnUse"><stop stop-color="#333B00"></stop><stop offset="0.47" stop-color="#006E00"></stop><stop offset="1" stop-color="#3DA013"></stop></linearGradient><linearGradient id="paint5_linear_2_97" x1="1.39659" y1="22.4959" x2="17.7965" y2="22.4959" gradientUnits="userSpaceOnUse"><stop stop-color="#333B00"></stop><stop offset="0.47" stop-color="#006E00"></stop><stop offset="1" stop-color="#3DA013"></stop></linearGradient><linearGradient id="paint6_linear_2_97" x1="-1.36802" y1="22.26" x2="4.10326" y2="17.1987" gradientUnits="userSpaceOnUse"><stop offset="0.47" stop-color="#FFC500"></stop><stop offset="1" stop-color="#F2D500"></stop></linearGradient><linearGradient id="paint7_linear_2_97" x1="3.43433" y1="5.72563" x2="18.0497" y2="5.72563" gradientUnits="userSpaceOnUse"><stop stop-color="#333B00"></stop><stop offset="0.47" stop-color="#006E00"></stop><stop offset="1" stop-color="#3DA013"></stop></linearGradient><linearGradient id="paint8_linear_2_97" x1="7.41592" y1="1.13049" x2="11.16" y2="6.42775" gradientUnits="userSpaceOnUse"><stop stop-color="#333B00"></stop><stop offset="0.47" stop-color="#006E00"></stop><stop offset="1" stop-color="#3DA013"></stop></linearGradient><linearGradient id="paint9_linear_2_97" x1="14.546" y1="24.9561" x2="7.71743" y2="20.0124" gradientUnits="userSpaceOnUse"><stop stop-color="#333B00"></stop><stop offset="0.47" stop-color="#006E00"></stop><stop offset="1" stop-color="#3DA013"></stop></linearGradient><linearGradient id="paint10_linear_2_97" x1="1.9887" y1="22.565" x2="17.7965" y2="22.565" gradientUnits="userSpaceOnUse"><stop stop-color="#333B00"></stop><stop offset="0.47" stop-color="#006E00"></stop><stop offset="1" stop-color="#3DA013"></stop></linearGradient><linearGradient id="paint11_linear_2_97" x1="19.328" y1="34.8865" x2="16.5714" y2="27.6891" gradientUnits="userSpaceOnUse"><stop stop-color="#333B00"></stop><stop offset="0.47" stop-color="#006E00"></stop><stop offset="1" stop-color="#3DA013"></stop></linearGradient><linearGradient id="paint12_linear_2_97" x1="32.3792" y1="7.18144" x2="27.8466" y2="18.4386" gradientUnits="userSpaceOnUse"><stop offset="0.47" stop-color="#FFC500"></stop><stop offset="1" stop-color="#F2D500"></stop></linearGradient><linearGradient id="paint13_linear_2_97" x1="15.4035" y1="5.98182" x2="22.8368" y2="13.5077" gradientUnits="userSpaceOnUse"><stop offset="0.47" stop-color="#FFC500"></stop><stop offset="1" stop-color="#F2D500"></stop></linearGradient><linearGradient id="paint14_linear_2_97" x1="24.1385" y1="-3.54599" x2="16.5302" y2="6.3747" gradientUnits="userSpaceOnUse"><stop stop-color="#333B00"></stop><stop offset="0.47" stop-color="#006E00"></stop><stop offset="1" stop-color="#3DA013"></stop></linearGradient><clipPath id="clip0_2_97"><rect width="157" height="34" fill="white"></rect></clipPath></defs></svg>